<svg xmlns="http://www.w3.org/2000/svg" version="1.1" xmlns:xlink="http://www.w3.org/1999/xlink" xmlns:svgjs="http://svgjs.dev/svgjs" width="1000" height="999" viewBox="0 0 1000 999"><g transform="matrix(1,0,0,1,-0.215743440233382,-0.21552769679306039)"><svg viewBox="0 0 343 343" data-background-color="#ffffff" preserveAspectRatio="xMidYMid meet" height="999" width="1000" xmlns="http://www.w3.org/2000/svg" xmlns:xlink="http://www.w3.org/1999/xlink"><g id="tight-bounds" transform="matrix(1,0,0,1,0.0740000000000407,0.07400000000001228)"><svg viewBox="0 0 342.85155851775386 342.85155851775386" height="342.85155851775386" width="342.85155851775386"><g><svg></svg></g><g><svg viewBox="0 0 342.85155851775386 342.85155851775386" height="342.85155851775386" width="342.85155851775386"><g><path d="M0 171.426c0-94.676 76.75-171.426 171.426-171.426 94.676 0 171.426 76.75 171.426 171.426 0 94.676-76.75 171.426-171.426 171.426-94.676 0-171.426-76.75-171.426-171.426zM171.426 336.755c91.309 0 165.329-74.02 165.329-165.329 0-91.309-74.02-165.329-165.329-165.329-91.309 0-165.329 74.02-165.329 165.329 0 91.309 74.02 165.329 165.329 165.329z" data-fill-palette-color="tertiary" fill="#a12c8f" stroke="transparent"></path><ellipse rx="164.56874808852186" ry="164.56874808852186" cx="171.42577925887693" cy="171.42577925887693" fill="#a12c8f" stroke="transparent" stroke-width="0" fill-opacity="1" data-fill-palette-color="tertiary"></ellipse></g><g transform="matrix(1,0,0,1,64.84655864529837,82.92847003107433)"><svg viewBox="0 0 213.1584412271571 176.9946184556052" height="176.9946184556052" width="213.1584412271571"><g><svg viewBox="0 0 213.1584412271571 176.9946184556052" height="176.9946184556052" width="213.1584412271571"><g><svg viewBox="0 0 213.1584412271571 176.9946184556052" height="176.9946184556052" width="213.1584412271571"><g transform="matrix(1,0,0,1,0,109.38977487749472)"><svg viewBox="0 0 213.1584412271571 67.60484357811049" height="67.60484357811049" width="213.1584412271571"><g id="textblocktransform"><svg viewBox="0 0 213.1584412271571 67.60484357811049" height="67.60484357811049" width="213.1584412271571" id="textblock"><g><svg viewBox="0 0 213.1584412271571 67.60484357811049" height="67.60484357811049" width="213.1584412271571"><g transform="matrix(1,0,0,1,0,0)"><svg width="213.1584412271571" viewBox="1 -36.2 144.24 45.75" height="67.60484357811049" data-palette-color="#ffffff"><path d="M10.9 0.05L6.75 0 2.45 0.2Q1 0.2 1-0.4L1-0.4Q1-1.1 1.75-1.35L1.75-1.35Q3.35-1.95 4.55-4.03 5.75-6.1 10.58-16.57 15.4-27.05 19.15-35.05L19.15-35.05Q19.5-35.8 19.78-36 20.05-36.2 20.58-36.2 21.1-36.2 21.25-36 21.4-35.8 21.8-34.65 22.2-33.5 22.43-32.9 22.65-32.3 23.15-30.95 23.65-29.6 24.75-26.9 25.85-24.2 29.78-15.08 33.7-5.95 34.3-4.73 34.9-3.5 35.95-2.63 37-1.75 37.77-1.68 38.55-1.6 39.08-1.43 39.6-1.25 39.6-0.65L39.6-0.65Q39.6 0.1 38.25 0.1L38.25 0.1 33.75-0.2 29.1 0Q27.55 0 27.13-0.13 26.7-0.25 26.7-0.65 26.7-1.05 27.1-1.28 27.5-1.5 27.95-1.58 28.4-1.65 28.8-2.02 29.2-2.4 29.2-3.28 29.2-4.15 27.95-7.55 26.7-10.95 25.85-12.55L25.85-12.55Q25.4-13.4 23.8-13.4L23.8-13.4 17.75-13.3 15.1-13.3Q12.85-13.3 12.28-13.05 11.7-12.8 11.33-12 10.95-11.2 10.25-9.78 9.55-8.35 9.3-7.8 9.05-7.25 8.7-6.4L8.7-6.4Q8.05-4.9 8.05-3.9 8.05-2.9 8.63-2.3 9.2-1.7 9.9-1.6L9.9-1.6Q11.75-1.45 11.75-0.65L11.75-0.65Q11.75-0.3 11.6-0.13 11.45 0.05 10.9 0.05L10.9 0.05ZM18.8-28.5Q18.35-28.5 15.95-22.98 13.55-17.45 13.55-16.85 13.55-16.25 14-16.1 14.45-15.95 16.1-15.95L16.1-15.95 17.65-15.95 22.4-16Q24.35-16 24.35-16.73 24.35-17.45 21.9-22.98 19.45-28.5 18.8-28.5L18.8-28.5ZM53 0L53 0 49.35-0.2Q48.05-0.2 45.9-0.1L45.9-0.1 43.75 0Q43 0 43-0.45 43-0.9 43.25-1 43.5-1.1 43.87-1.15 44.25-1.2 44.6-1.45L44.6-1.45Q45.55-2.05 45.65-5.08 45.75-8.1 45.75-9.05L45.75-9.05 45.75-16.25Q45.75-17.85 45.17-18.4 44.6-18.95 43.6-18.95L43.6-18.95 43.1-18.95Q42.15-18.95 42.15-19.5L42.15-19.5Q42.15-20 43.22-20.15 44.3-20.3 44.92-20.48 45.55-20.65 46.57-21.08 47.6-21.5 48.22-21.8 48.85-22.1 49.05-22.1L49.05-22.1 49.15-22.1Q49.6-22.1 49.6-21.5L49.6-21.5 49.5-19.35Q49.5-18.05 49.7-18.05 49.9-18.05 50.1-18.3L50.1-18.3Q50.85-19.35 52.1-20.1L52.1-20.1Q54.35-21.5 56.4-21.5 58.45-21.5 60.05-20.88 61.65-20.25 62.55-19.33 63.45-18.4 64.05-17.2L64.05-17.2Q65.05-15.2 65.05-13.1L65.05-13.1 65.05-12.6 65.1-9.95 65.1-4.85Q65.1-2.95 65.62-2.23 66.15-1.5 68.15-1.2L68.15-1.2Q69.15-1.05 69.15-0.45L69.15-0.45Q69.15 0.05 68.15 0.05L68.15 0.05 64.05-0.2 60.2 0Q59.2 0 59.2-0.65L59.2-0.65Q59.2-1.1 59.8-1.25L59.8-1.25 60.45-1.4Q61.55-1.75 61.55-4.75L61.55-4.75 61.55-11.5Q61.55-15.35 59.65-17.32 57.75-19.3 55.35-19.3 52.95-19.3 51.35-18.15 49.75-17 49.4-16 49.05-15 49.05-8.35L49.05-8.35 49.05-6.45Q49.05-3.95 49.57-2.75 50.1-1.55 51.9-1.4L51.9-1.4Q52.4-1.4 53.17-1.23 53.95-1.05 53.95-0.65L53.95-0.65Q53.95 0 53 0ZM78.45 0.75L78.45 0.75Q72.55 0.75 72.55-4.25L72.55-4.25Q72.55-7.85 75.55-9.2L75.55-9.2Q78.05-10.25 83.2-11.1L83.2-11.1Q83.35-11.15 83.6-11.18 83.85-11.2 84.12-11.25 84.4-11.3 84.55-11.35L84.55-11.35Q84.9-11.5 84.9-12.05L84.9-12.05 85-14.65Q85-17.5 83.35-18.78 81.7-20.05 80.15-20.05L80.15-20.05Q76.55-20.05 76.55-17.05L76.55-17.05 76.75-15.25Q76.75-14.25 75.85-14.25L75.85-14.25Q75.15-14.25 74.3-14.5L74.3-14.5Q72.75-15 72.75-16.2L72.75-16.2Q72.75-18.15 75.37-19.93 78-21.7 80.65-21.7 83.3-21.7 84.8-21.2 86.3-20.7 87.02-20.08 87.75-19.45 88.15-18.4L88.15-18.4Q88.65-17.15 88.65-14.48 88.65-11.8 88.52-9.73 88.4-7.65 88.4-5.95 88.4-4.25 88.8-3.18 89.2-2.1 89.75-1.8 90.3-1.5 90.85-1.45L90.85-1.45Q92.2-1.35 92.2-0.65L92.2-0.65Q92.2 0.4 89.05 0.4L89.05 0.4Q87.75 0.4 86.82-0.3 85.9-1 85.5-1.68 85.1-2.35 85.05-2.35 85-2.35 84.65-2.02 84.3-1.7 83.67-1.25 83.05-0.8 82.25-0.35L82.25-0.35Q80.4 0.75 78.45 0.75ZM84.55-10.4L84.55-10.4 84.05-10.3Q82.9-10.1 82.6-10.05 82.3-10 81.2-9.75 80.1-9.5 79.67-9.3 79.25-9.1 78.47-8.68 77.7-8.25 77.35-7.8L77.35-7.8Q76.45-6.4 76.45-4.85 76.45-3.3 77.45-2.27 78.45-1.25 80.02-1.25 81.6-1.25 82.52-1.65 83.45-2.05 83.9-2.55 84.35-3.05 84.6-3.9L84.6-3.9Q84.9-4.85 84.9-6.35L84.9-6.35 84.9-9.95Q84.9-10.4 84.55-10.4ZM105.59 0L105.59 0 101.94-0.2Q100.64-0.2 98.49-0.1L98.49-0.1 96.34 0Q95.59 0 95.59-0.45 95.59-0.9 95.84-1 96.09-1.1 96.47-1.15 96.84-1.2 97.19-1.45L97.19-1.45Q98.14-2.05 98.24-5.08 98.34-8.1 98.34-9.05L98.34-9.05 98.34-16.25Q98.34-17.85 97.77-18.4 97.19-18.95 96.19-18.95L96.19-18.95 95.69-18.95Q94.74-18.95 94.74-19.5L94.74-19.5Q94.74-20 95.82-20.15 96.89-20.3 97.52-20.48 98.14-20.65 99.17-21.08 100.19-21.5 100.82-21.8 101.44-22.1 101.64-22.1L101.64-22.1 101.74-22.1Q102.19-22.1 102.19-21.5L102.19-21.5 102.09-19.35Q102.09-18.05 102.29-18.05 102.49-18.05 102.69-18.3L102.69-18.3Q103.44-19.35 104.69-20.1L104.69-20.1Q106.94-21.5 108.99-21.5 111.04-21.5 112.64-20.88 114.24-20.25 115.14-19.33 116.04-18.4 116.64-17.2L116.64-17.2Q117.64-15.2 117.64-13.1L117.64-13.1 117.64-12.6 117.69-9.95 117.69-4.85Q117.69-2.95 118.22-2.23 118.74-1.5 120.74-1.2L120.74-1.2Q121.74-1.05 121.74-0.45L121.74-0.45Q121.74 0.05 120.74 0.05L120.74 0.05 116.64-0.2 112.79 0Q111.79 0 111.79-0.65L111.79-0.65Q111.79-1.1 112.39-1.25L112.39-1.25 113.04-1.4Q114.14-1.75 114.14-4.75L114.14-4.75 114.14-11.5Q114.14-15.35 112.24-17.32 110.34-19.3 107.94-19.3 105.54-19.3 103.94-18.15 102.34-17 101.99-16 101.64-15 101.64-8.35L101.64-8.35 101.64-6.45Q101.64-3.95 102.17-2.75 102.69-1.55 104.49-1.4L104.49-1.4Q104.99-1.4 105.77-1.23 106.54-1.05 106.54-0.65L106.54-0.65Q106.54 0 105.59 0ZM131.64 9.5L131.49 9.5 129.34 9.55Q128.39 9.55 128.39 8.9L128.39 8.9Q128.39 8.75 129.52 7.35 130.64 5.95 131.79 3.9 132.94 1.85 132.94 0.28 132.94-1.3 130.09-7.5 127.24-13.7 125.14-17.65L125.14-17.65Q124.59-18.65 124.02-19.2 123.44-19.75 123.09-19.8L123.09-19.8Q122.29-19.9 122.29-20.55 122.29-21.2 123.29-21.2L123.29-21.2 128.64-21.1 131.49-21.2Q131.84-21.2 132.12-21.03 132.39-20.85 132.39-20.65L132.39-20.65Q132.39-19.75 131.19-19.75L131.19-19.75 130.44-19.75Q129.64-19.75 129.64-18.5L129.64-18.5Q129.64-17 132.29-11.3L132.29-11.3Q132.69-10.45 133.49-8.6L133.49-8.6Q134.99-5.2 135.29-5.2 135.59-5.2 137.62-10.95 139.64-16.7 139.64-17.8 139.64-18.9 139.17-19.35 138.69-19.8 138.09-19.8L138.09-19.8Q136.54-19.7 136.54-20.65L136.54-20.65Q136.54-21.25 137.49-21.25L137.49-21.25 141.09-21.2 144.19-21.25Q145.24-21.25 145.24-20.6L145.24-20.6Q145.24-20.1 144.37-19.88 143.49-19.65 143.19-19.25L143.19-19.25Q142.39-18.1 140.49-12.95L140.49-12.95 136.04-1.1Q135.49 0.35 134.94 1.88 134.39 3.4 134.04 4.35 133.69 5.3 133.34 6.25 132.99 7.2 132.79 7.73 132.59 8.25 132.39 8.7L132.39 8.7Q131.99 9.5 131.64 9.5L131.64 9.5Z" opacity="1" transform="matrix(1,0,0,1,0,0)" fill="#ffffff" class="wordmark-text-0" data-fill-palette-color="quaternary" id="text-0"></path></svg></g></svg></g></svg></g></svg></g><g transform="matrix(1,0,0,1,59.864761076658844,0)"><svg viewBox="0 0 93.42891907383942 93.4298938249487" height="93.4298938249487" width="93.42891907383942"><g><svg xmlns="http://www.w3.org/2000/svg" xmlns:xlink="http://www.w3.org/1999/xlink" version="1.1" x="0" y="0" viewBox="2.151 2.1500000000000057 95.849 95.85" enable-background="new 0 0 100 100" xml:space="preserve" height="93.4298938249487" width="93.42891907383942" class="icon-icon-0" data-fill-palette-color="quaternary" id="icon-0"><g fill="#ffffff" data-fill-palette-color="quaternary"><path fill="#ffffff" d="M98 50.075C98 76.543 76.542 98 50.075 98 23.606 98 2.151 76.543 2.151 50.075c0-26.468 21.456-47.925 47.924-47.925C76.542 2.15 98 23.607 98 50.075zM49.797 6.185c-24.373 0-44.133 19.758-44.133 44.131 0 24.375 19.76 44.133 44.133 44.133S93.93 74.691 93.93 50.316C93.93 25.943 74.17 6.185 49.797 6.185z" data-fill-palette-color="quaternary"></path><path fill="#ffffff" d="M90.862 50.438c0 22.613-18.331 40.945-40.944 40.945-22.614 0-40.945-18.332-40.945-40.945 0-22.614 18.332-40.945 40.945-40.945C72.531 9.493 90.862 27.825 90.862 50.438zM21.963 34.746l-8.713 3.712 4.68 8.552-6.778 7.423 8.068 5.97-3.066 9.198 9.681 2.258 1.131 9.683 9.843-1.776 4.679 8.231 8.229-5.811 8.067 5.811 4.843-8.393 9.681 2.259 1.131-10.329 9.844-1.771-3.067-9.521 8.067-5.809-6.454-7.262 4.519-8.875-9.037-3.873 1.129-9.843-10.166-0.162-2.904-9.52-9.197 3.872-6.454-7.1-6.454 7.262-9.197-4.034-3.228 9.52-9.843-0.323L21.963 34.746z" data-fill-palette-color="quaternary"></path><path fill="#ffffff" d="M76.019 60.886l2.098 5.809-6.132 1.13-10.166-7.906-1.291 1.452 8.876 9.519-0.322 5.973-5.971-1.454L57.001 63.82c-0.675 0.37-1.38 0.693-2.111 0.963l4.671 12.562-3.229 4.841-4.355-3.389-1.265-13.12c-0.382 0.031-0.769 0.05-1.156 0.05s-0.77-0.019-1.15-0.047l-0.624 13.278-4.841 3.551-3.066-5.002 4.348-12.723c-0.708-0.261-1.391-0.568-2.047-0.924l-5.852 11.547-5.809 1.292-0.646-5.486 8.913-9.851c-0.566-0.549-1.092-1.14-1.57-1.769l-10.085 8.068-5.809-0.967 1.613-5.648 12.263-5.002h0.001c-0.312-0.77-0.563-1.569-0.748-2.394l-12.646 3.2-4.518-3.388 3.549-4.035h13.253c0.032-0.624 0.105-1.24 0.209-1.843l-0.068-0.092-13.071-2.905-2.42-4.357 5.325-2.582 11.664 5.611c0.264-0.522 0.555-1.027 0.875-1.514L26.158 34.1l-0.484-5.647h5.809l7.906 9.521c0 0 0.21 0.074 0.498 0.165 0.478-0.383 0.978-0.738 1.5-1.063-0.114-0.391-0.222-0.717-0.222-0.717L34.71 26.354l1.453-5.809 5.325 2.098 4.246 12.578c0.531-0.134 1.073-0.24 1.625-0.317l-1.354-13.067 3.712-4.034 3.712 3.872L52.007 34.94c0.646 0.103 1.274 0.246 1.891 0.426l3.565-12.401 5.486-2.743 1.937 5.971-6.779 10.488 1.776 1.614 8.23-9.682h5.81L73.438 34.1l-10.489 7.261 0.161 1.292c0 0-0.006 0.022-0.016 0.058 0.146 0.264 0.288 0.532 0.423 0.805 1.75-0.791 11.856-5.704 11.856-5.704l5.325 2.582c0 0-1.936 4.68-2.42 4.68-0.426 0-10.897 1.985-13.471 2.474 0.126 0.717 0.203 1.451 0.227 2.198l13.403-0.154 3.712 4.197-4.681 3.387-12.85-3.331c-0.186 0.776-0.428 1.532-0.727 2.256L76.019 60.886zM49.879 38.618c-1.157 0-2.098 0.94-2.098 2.098 0 1.159 0.94 2.099 2.098 2.099s2.098-0.939 2.098-2.099C51.977 39.558 51.036 38.618 49.879 38.618zM56.494 41.361c-1.158 0-2.097 0.94-2.097 2.098 0 1.159 0.938 2.099 2.097 2.099 1.159 0 2.099-0.94 2.099-2.099C58.593 42.301 57.653 41.361 56.494 41.361zM59.399 48.138c-1.158 0-2.097 0.941-2.097 2.098 0 1.158 0.938 2.097 2.097 2.097 1.159 0 2.099-0.938 2.099-2.097C61.498 49.079 60.559 48.138 59.399 48.138zM56.655 54.916c-1.157 0-2.098 0.939-2.098 2.097 0 1.16 0.94 2.097 2.098 2.097 1.159 0 2.099-0.938 2.099-2.097C58.754 55.855 57.814 54.916 56.655 54.916zM49.879 57.98c-1.157 0-2.098 0.941-2.098 2.1 0 1.157 0.94 2.097 2.098 2.097s2.098-0.939 2.098-2.097C51.977 58.922 51.036 57.98 49.879 57.98zM43.263 54.916c-1.159 0-2.097 0.939-2.097 2.097 0 1.16 0.938 2.097 2.097 2.097 1.159 0 2.098-0.937 2.098-2.097C45.361 55.855 44.422 54.916 43.263 54.916zM40.197 48.138c-1.159 0-2.097 0.941-2.097 2.098 0 1.158 0.938 2.097 2.097 2.097 1.159 0 2.098-0.938 2.098-2.097C42.295 49.079 41.356 48.138 40.197 48.138zM42.779 41.361c-1.159 0-2.097 0.94-2.097 2.098 0 1.159 0.938 2.099 2.097 2.099s2.097-0.94 2.097-2.099C44.876 42.301 43.938 41.361 42.779 41.361zM49.717 47.494c-1.516 0-2.742 1.227-2.742 2.743 0 1.515 1.227 2.741 2.742 2.741s2.742-1.227 2.742-2.741C52.459 48.721 51.232 47.494 49.717 47.494z" data-fill-palette-color="quaternary"></path></g></svg></g></svg></g><g></g></svg></g></svg></g></svg></g></svg></g><defs></defs></svg><rect width="342.85155851775386" height="342.85155851775386" fill="none" stroke="none" visibility="hidden"></rect></g></svg></g></svg>